/* XPM */
static char *bd38d3e036a74cf6eb3e7ac2a71bfed7ll2obtT23jDF8cOA[] = {
/* columns rows colors chars-per-pixel */
"32 32 32 1 ",
"  c None",
". c #7E400F",
"X c #76461B",
"o c #85340A",
"O c #A76917",
"+ c #B36F1A",
"@ c #BB691C",
"# c #C26E1A",
"$ c #D99D18",
"% c #E69611",
"& c #FDBA2C",
"* c #F6C12F",
"= c #FDC13A",
"- c #FDC245",
"; c #FDF244",
": c #FDF34A",
"> c #FDF64E",
", c #FDE55A",
"< c #FEFD6F",
"1 c #FEEE79",
"2 c #F7FE7F",
"3 c #F8FE8C",
"4 c #FEEE9E",
"5 c #F9FE9C",
"6 c #FAFEA7",
"7 c #FAFEB1",
"8 c #FBFEB5",
"9 c #FCFFD4",
"0 c #FDFFDF",
"q c #FEFFE9",
"w c #FEFFF3",
"e c gray98",
/* pixels */
"                                ",
"                                ",
"              ..                ",
"             .77....            ",
"       ...  .%:29777....        ",
"      .eqe....*8,>$37777..      ",
"      .8&7eeew....@8*;%3:$.     ",
"     .e&@e:5&7ewee...:@3:.      ",
"     .e8e35&@e:::&e::.::%.      ",
"    .w:;;;5:e7::*@e*%.:%.       ",
"    .e:;;&7::;::8q9$.:;#.       ",
"   .w::;*#e::..o.%:@.3$.        ",
"   .e&::8w9:.qqqq.o..=$.        ",
"  .e*+055:-7.959wqqqq....       ",
"  .e6955;*#X93=w<5119qqee....   ",
"  .e5:5::1,.e*Oq:31$86664eeee.  ",
" .q:::5::7w.q7qq:3*O8;::=e03:.  ",
" .++&5::::.e:::::38qq::=@e2=$.  ",
"  ..+++$=+.e3;:=83::;:38e9:$.   ",
"    ......e:::&+83;:=73333*+.   ",
"         .033:qqq3:&O833=;$.    ",
"        .e:=833333:8qq3&O=+.    ",
"        .e*#8:3;=723::33q$.     ",
"       .e:8qq:3*@8:;;=73&#.     ",
"       .2:23::38qq:;=@8;$.      ",
"      .@%*;333:::;;:8qq=@.      ",
"       ...@@%$=:3:3::3:%.       ",
"          ....@@@$%===&@.       ",
"              .....@@+@.        ",
"                   ....         ",
"                                ",
"                                "
};
