/* XPM */
static char *_3d8a12bd7834bd4f761a900dd40f8a8Ovz7L5d2xcMNnD3A[] = {
/* columns rows colors chars-per-pixel */
"32 32 6 1 ",
"  c #A56F50",
". c #B48366",
"X c #B89272",
"o c #ADDE7C",
"O c #86C68D",
"+ c #C6E78D",
/* pixels */
"oooooooooooooooooooooooooooooooo",
"ooOooooo.oooooooXoooooOo.ooooooo",
"ooXXoO+..XooX.o..Xo.oooXX.oOoX.o",
"o...ooo..XooX.o..X.X.ooXX.ooX.X.",
"oo.X..oOX.ooX.o..X.X.oX.XOX.XX o",
"oo .X.XoXXooX.o..XXX.oXX.o....oo",
"oooo   oX.oo.XoXX.XXXo . o  oooo",
"ooXXoooo  oo.XoXX..X.oo ooooXXXo",
"o XXXX..Xooo  oo O .oooo..XXXX. ",
"oo  ..XX oooooooooo +o+oXX..   o",
"oooooooooooooooooooooooooooooooo",
"oooooooooooooooooooooooooooooooo",
"oo. XXXXXoooooooooooooooXXXX  Xo",
"ooXXXX.XX ooooooooooooo XX.XXX o",
"oooooooooooooooooooooooooooooooo",
"oo+...XXXXoooooooooooooXXXX...oo",
"oo X....XXoooooooooooo XX...XXoo",
"oOo       ooooooooooooo       oO",
"ooo.XXXo.+ooooooooooooo+Xo.X..oo",
"o+XX..XX.XoooooooooooooX.X..XXo+",
"oO       ooooooooooooooo      oO",
"ooooooooooooooooooooooOooooooooo",
"oooOXXXXo+ooooooXoo+ooo+oXXXXOoo",
"ooX.....ooooXXo.XXo.ooooX.X...Xo",
"o ..   OoXooX.o..X.X.ooXoO  ... ",
"oo  ooXX.Xoo .o..X.X.o.XoXoo   o",
"oooo... X.ooX.o..XXX.oX.X X.oooo",
"oooo.XXoX.ooX.oX.XXXXoX.Xo.X.oOo",
"oooX.Xo.X.oo.XoXX..X.oo....XXXoo",
"ooXX.Xo.X.oo.Xo . .X oo.X. X.Xoo",
"oO . +o . ooXXooooo +oo X o+..oO",
"ooo oooO ooo  oO+ooooooo Ooo  oo"
};
