/* XPM */
static char *_c7b4e47a9c84a4eeae2f789fc98a2f5CvpCQd6IcRClzL5Z[] = {
/* columns rows colors chars-per-pixel */
"32 32 10 1 ",
"  c None",
". c #211F30",
"X c #076029",
"o c #9C1B4D",
"O c #CC3048",
"+ c #E44A4A",
"@ c #28860F",
"# c #72A11D",
"$ c #A4CC42",
"% c white",
/* pixels */
"                                ",
"                                ",
"                                ",
"                                ",
"                                ",
"                                ",
"     ...   ......   ....        ",
"    .+++. .######. .####.       ",
"    .OOOo................       ",
"     ..o.oO+++O+OOOO+O+++.      ",
"    .Oo....oooOoOOOOoOoo..      ",
"    .+O.ooOOOOOOOOOOOOOOO.      ",
"    .+O...................      ",
"    .+..@@@@X%%%%X@X%%%%X@.     ",
"     ..@####@XXXX@#@XXXX@#.     ",
"      .###################.     ",
"      .#####XXXXXXXXXXXX##.     ",
"      .####@############@#.     ",
"      ...@######@@@@@#####.     ",
"     .@##.@#############@.@.    ",
"     .@###############@@.@@.    ",
"     .@###############..@@@.    ",
"      .@@#####$$$$$$$##.@@.     ",
"       .....#$$$$$$$$$#...      ",
"         .@##$$$$$$$$$#.        ",
"         .@##$$$$$$$$$#.        ",
"         .@####.#$$$$$#.        ",
"          .@@##....#$##@.       ",
"           .@##.   ..###.       ",
"            ...    .@###.       ",
"                    .@##.       ",
"                     ...        "
};
