/* XPM */
static char *_5263adaf9824525a14aca54e0d81f5e5POmZYF6bIdIjewH[] = {
/* columns rows colors chars-per-pixel */
"32 32 8 1 ",
"  c None",
". c black",
"X c #3A4466",
"o c #F77622",
"O c #FEAE34",
"+ c #5A6988",
"@ c #C0CBDC",
"# c white",
/* pixels */
"                                ",
"                                ",
"                  ......        ",
"                  ......        ",
"                ..XX++++..      ",
"                ..XX++++..      ",
"                ..++OOXX..      ",
"                ..++OOXX..      ",
"                ..++++XX##..    ",
"                ..++++XX##..    ",
"                ..XX++......    ",
"                ..XX++......    ",
"                ..XX....        ",
"                ..XX....        ",
"              ..XXXX......      ",
"              ..XXXX......      ",
"            ..@@##XXXX..XX..    ",
"            ..@@##XXXX..XX..    ",
"        ....XX######XXXXXX..    ",
"        ....XX######XXXXXX..    ",
"    ....XX##++######@@XX@@..    ",
"    ....XX##++######@@XX@@..    ",
"    ..XXXXXX##++##@@##@@@@..    ",
"    ..XXXXXX##++##@@##@@@@..    ",
"      ........XXXX##@@@@..      ",
"      ........XXXX##@@@@..      ",
"        ..XXXXXX##@@....        ",
"        ..XXXXXX##@@....        ",
"      ..XXXX....OO......        ",
"      ..XXXX....OO......        ",
"      ......  ..ooOO..oo..      ",
"      ......  ..ooOO..oo..      "
};
