/* XPM */
static char *_afde2c718d04e31daf8aa01c002c7a6Xu0KHAw0avQq6S8G[] = {
/* columns rows colors chars-per-pixel */
"32 32 8 1 ",
"  c None",
". c black",
"X c #3A4466",
"o c #F77622",
"O c #FEAE34",
"+ c #5A6988",
"@ c #C0CBDC",
"# c white",
/* pixels */
"                                ",
"                                ",
"                                ",
"                                ",
"                    ......      ",
"                    ......      ",
"                  ..XX++++..    ",
"                  ..XX++++..    ",
"                  ..++OOXX..    ",
"                  ..++OOXX..    ",
"                  ..++++XX##..  ",
"                  ..++++XX##..  ",
"                ..XXXX++......  ",
"                ..XXXX++......  ",
"              ..XXXX......      ",
"              ..XXXX......      ",
"            ..@@##XX....XX..    ",
"            ..@@##XX....XX..    ",
"    ........XX######XXXXXX..    ",
"    ........XX######XXXXXX..    ",
"    ..XXXX##++######@@XX@@..    ",
"    ..XXXX##++######@@XX@@..    ",
"      ..XXXX##++##@@##@@@@..    ",
"      ..XXXX##++##@@##@@@@..    ",
"        ......XXXX##@@@@..      ",
"        ......XXXX##@@@@..      ",
"        ..XXXXXX@@@@....        ",
"        ..XXXXXX@@@@....        ",
"      ..XXXX..oooo....oo..      ",
"      ..XXXX..oooo....oo..      ",
"      ........OO..  ..oooo..    ",
"      ........OO..  ..oooo..    "
};
