/* XPM */
static char *_66feee711af4c3db44dc249052e08d46vdRNNFOU5x2zoL8[] = {
/* columns rows colors chars-per-pixel */
"32 32 8 1 ",
"  c None",
". c black",
"X c #3A4466",
"o c #F77622",
"O c #FEAE34",
"+ c #5A6988",
"@ c #C0CBDC",
"# c white",
/* pixels */
"                                ",
"                                ",
"                                ",
"                                ",
"                    ......      ",
"                    ......      ",
"                  ..XX++++..    ",
"                  ..XX++++..    ",
"                  ..++OOXX..    ",
"                  ..++OOXX..    ",
"                  ..++++XX##..  ",
"                  ..++++XX##..  ",
"                ..XXXX++......  ",
"                ..XXXX++......  ",
"              ..XXXX......      ",
"              ..XXXX......      ",
"            ..@@##XX....XX..    ",
"            ..@@##XX....XX..    ",
"        ....XX######XXXXXX..    ",
"        ....XX######XXXXXX..    ",
"    ....XX##++######@@XX@@..    ",
"    ....XX##++######@@XX@@..    ",
"    ..XXXXXX##++##@@##@@@@..    ",
"    ..XXXXXX##++##@@##@@@@..    ",
"      ........XXXX##@@@@..      ",
"      ........XXXX##@@@@..      ",
"        ..XXXXXXXX##....        ",
"        ..XXXXXXXX##....        ",
"      ..XXXX......OO..          ",
"      ..XXXX......OO..          ",
"      ......    ..ooOO..        ",
"      ......    ..ooOO..        "
};
