/* XPM */
static char *aa9108e3a92c4035ac93262e7e23cc57CtEIJp7ld1iajh7N[] = {
/* columns rows colors chars-per-pixel */
"32 32 8 1 ",
"  c None",
". c black",
"X c #3A4466",
"o c #F77622",
"O c #FEAE34",
"+ c #5A6988",
"@ c #C0CBDC",
"# c white",
/* pixels */
"                                ",
"                                ",
"                  ......        ",
"                  ......        ",
"                ..XX++++..      ",
"                ..XX++++..      ",
"                ..++OOXX..      ",
"                ..++OOXX..      ",
"                ..++++XX##..    ",
"                ..++++XX##..    ",
"                ..XX++......    ",
"                ..XX++......    ",
"                ..XX....        ",
"                ..XX....        ",
"              ..XXXX......      ",
"              ..XXXX......      ",
"            ..@@##XXXX..XX..    ",
"            ..@@##XXXX..XX..    ",
"        ....XX######XXXXXX..    ",
"        ....XX######XXXXXX..    ",
"    ....XX##++######@@XX@@..    ",
"    ....XX##++######@@XX@@..    ",
"    ..XXXXXX##++##@@##@@@@..    ",
"    ..XXXXXX##++##@@##@@@@..    ",
"      ........XXXX##@@@@..      ",
"      ........XXXX##@@@@..      ",
"        ..XXXXXX##@@....        ",
"        ..XXXXXX##@@....        ",
"      ..XXXX....OO......        ",
"      ..XXXX....OO......        ",
"      ......  ..ooOO..oo..      ",
"      ......  ..ooOO..oo..      "
};
