/* XPM */
static char *_50dda4acdbf4303a95ef98296918530hX4fNdfsbmW6EGZq[] = {
/* columns rows colors chars-per-pixel */
"32 32 7 1 ",
"  c #2A6D6F",
". c #48897B",
"X c #88AE61",
"o c #ADDE7C",
"O c #53B28A",
"+ c #91D086",
"@ c #C6E78D",
/* pixels */
"oooooooooooooooooooooooooooooooo",
"oooooooooooooooooooooooooooooooo",
"oooooooooooooooooooooooooooooooo",
"oooooooooooooooooooooooooooooooo",
"oooooooooooooooooooooooooooooooo",
"oooooooooooooooooooooooooooooooo",
"oooooooooooooOOOO..ooooooooooooo",
"oooooooooooOO++++++..  ooooooooo",
"oooooooooo.++@@OO..OOO.  ooooooo",
"ooooooooo.+@@@+++OO...... oooooo",
"ooooooo..+@@@@@@@+.+++O  . ooooo",
"oooooo.OO@@@@@O++++++++OO . oooo",
"ooooo.++++@++@@OO+OOO+OOO.. oooo",
"ooooo.++++@++@@OO+OOO+OOO.. oooo",
"oooo.O+++OO@@@O++++++O.OO ..  oo",
"oooo.O.  +@@@@+@@O++++O  . .  oo",
"oo..OO.+++@@@O+@@+.++OOOO. .  oo",
"oo..OOO..++++.++++OOO.OOO.. XXoo",
"ooXX.OO..O OOO.+++OOO.O.... XXoo",
"ooXX ..OOOO..O.OO.O..O...  XXooo",
"oooX ..OOOO..O.OO.O..O...  XXooo",
"ooooX  ..OOOOOO..OO....   XXoooo",
"oooooXX  ..OOO.  O.    XXXXooooo",
"ooooooXXXXX... ... XXXXXXXoooooo",
"ooooooooooXXXXXXXXXXXXoooooooooo",
"oooooooooooooooooooooooooooooooo",
"oooooooooooooooooooooooooooooooo",
"oooooooooooooooooooooooooooooooo",
"oooooooooooooooooooooooooooooooo",
"oooooooooooooooooooooooooooooooo",
"oooooooooooooooooooooooooooooooo",
"oooooooooooooooooooooooooooooooo"
};
